<svg xmlns="http://www.w3.org/2000/svg" viewBox="0 0 100 120">
  <path
    d="M 10 18 Q 10 8 22 6 L 50 2 L 78 6 Q 90 8 90 18 L 90 68 Q 90 92 50 116 Q 10 92 10 68 Z"
    fill="#2c7da8"
  />
  <path
    d="M 28 36 Q 50 30 64 36 Q 70 38 70 42 Q 70 46 66 46 Q 62 46 62 42"
    fill="none" stroke="#fbfaf6" stroke-width="5" stroke-linecap="round" stroke-linejoin="round"
  />
  <path
    d="M 24 56 Q 50 48 70 56 Q 78 60 78 66 Q 78 72 72 72 Q 66 72 66 66"
    fill="none" stroke="#fbfaf6" stroke-width="5" stroke-linecap="round" stroke-linejoin="round"
  />
  <path
    d="M 30 78 Q 48 72 60 78 Q 64 80 64 84 Q 64 88 60 88 Q 56 88 56 84"
    fill="none" stroke="#fbfaf6" stroke-width="5" stroke-linecap="round" stroke-linejoin="round"
  />
</svg>
